HIERARCHY
ROOT root
{
	OFFSET 0.000000 0.000000 0.000000
	CHANNELS 6 Xposition Yposition Zposition Zrotation Yrotation Xrotation
	JOINT lhip
	{
		OFFSET 0.058581 -0.082280 -0.017664
		CHANNELS 3 Zrotation Yrotation Xrotation
		JOINT lknee
		{
			OFFSET 0.043451 -0.386469 0.008037
			CHANNELS 3 Zrotation Yrotation Xrotation
			JOINT lankle
			{
				OFFSET -0.014790 -0.426874 -0.037428
				CHANNELS 3 Zrotation Yrotation Xrotation
				JOINT ltoe
				{
					OFFSET 0.041054 -0.060286 0.122042
					CHANNELS 3 Zrotation Yrotation Xrotation
					End Site
					{
						OFFSET 0.000000 0.000000 0.000000
					}
				}
			}
		}
	}
	JOINT rhip
	{
		OFFSET -0.060310 -0.090513 -0.013543
		CHANNELS 3 Zrotation Yrotation Xrotation
		JOINT rknee
		{
			OFFSET -0.043257 -0.383688 -0.004843
			CHANNELS 3 Zrotation Yrotation Xrotation
			JOINT rankle
			{
				OFFSET 0.019056 -0.420046 -0.034562
				CHANNELS 3 Zrotation Yrotation Xrotation
				JOINT rtoe
				{
					OFFSET -0.034840 -0.062106 0.130323
					CHANNELS 3 Zrotation Yrotation Xrotation
					End Site
					{
						OFFSET 0.000000 0.000000 0.000000
					}
				}
			}
		}
	}
	JOINT lowerback
	{
		OFFSET 0.004439 0.124404 -0.038385
		CHANNELS 3 Zrotation Yrotation Xrotation
		JOINT upperback
		{
			OFFSET 0.004488 0.137956 0.026820
			CHANNELS 3 Zrotation Yrotation Xrotation
			JOINT chest
			{
				OFFSET -0.002265 0.056032 0.002855
				CHANNELS 3 Zrotation Yrotation Xrotation
				JOINT lowerneck
				{
					OFFSET -0.013390 0.211636 -0.033468
					CHANNELS 3 Zrotation Yrotation Xrotation
					JOINT upperneck
					{
						OFFSET 0.010113 0.088937 0.050410
						CHANNELS 3 Zrotation Yrotation Xrotation
						End Site
						{
							OFFSET 0.000000 0.000000 0.000000
						}
					}
				}
				JOINT lclavicle
				{
					OFFSET 0.071702 0.114000 -0.018898
					CHANNELS 3 Zrotation Yrotation Xrotation
					JOINT lshoulder
					{
						OFFSET 0.122921 0.045205 -0.019046
						CHANNELS 3 Zrotation Yrotation Xrotation
						JOINT lelbow
						{
							OFFSET 0.255332 -0.015649 -0.022946
							CHANNELS 3 Zrotation Yrotation Xrotation
							JOINT lwrist
							{
								OFFSET 0.265709 0.012698 -0.007375
								CHANNELS 3 Zrotation Yrotation Xrotation
								End Site
								{
									OFFSET 0.000000 0.000000 0.000000
								}
							}
						}
					}
				}
				JOINT rclavicle
				{
					OFFSET -0.082954 0.112472 -0.023707
					CHANNELS 3 Zrotation Yrotation Xrotation
					JOINT rshoulder
					{
						OFFSET -0.113228 0.046853 -0.008472
						CHANNELS 3 Zrotation Yrotation Xrotation
						JOINT relbow
						{
							OFFSET -0.260127 -0.014369 -0.031269
							CHANNELS 3 Zrotation Yrotation Xrotation
							JOINT rwrist
							{
								OFFSET -0.269108 0.006794 -0.006027
								CHANNELS 3 Zrotation Yrotation Xrotation
								End Site
								{
									OFFSET 0.000000 0.000000 0.000000
								}
							}
						}
					}
				}
			}
		}
	}
}
MOTION
Frames: 7
Frame Time: 0.033333
1.974592 0.612992 0.992063 -90.684538 2.384846 88.318494 3.730626 -1.097769 0.579015 -5.563056 -11.978167 7.257542 10.352854 7.273683 -13.955122 0.000000 -0.000000 0.000000 0.984753 -2.744644 0.965640 2.890613 1.117416 8.577183 1.304462 -2.242590 -9.122425 0.000000 -0.000000 0.000000 -3.112475 4.304875 1.865615 4.075811 -2.053253 6.681922 1.160748 0.357815 2.711013 5.063606 -1.125429 12.812537 4.306741 -8.795189 12.313964 -19.617409 2.807628 6.199859 -69.538914 -6.553837 12.989343 14.164638 -32.318080 23.703051 5.610899 5.413382 -0.649805 20.185474 -3.473946 6.412046 70.521746 4.049476 7.310446 -20.136091 18.110413 4.675519 2.433080 -5.531871 -5.415197 
1.973840 0.613378 0.991916 -90.846222 2.397180 88.245387 3.772836 -1.226758 0.805253 -5.590081 -11.909045 7.112392 10.224028 7.513992 -14.091829 0.000000 -0.000000 0.000000 1.018652 -2.738622 1.106294 2.909604 1.201448 8.487791 1.404339 -2.414585 -9.370258 0.000000 -0.000000 0.000000 -3.041810 4.259391 1.761735 3.999069 -1.972688 6.742590 1.197585 0.404102 2.799470 5.123006 -1.007030 12.965797 4.315548 -8.603684 12.337411 -19.504542 2.923736 6.279219 -69.684244 -6.481831 13.170456 14.022241 -32.237698 23.828919 6.382122 5.353563 -0.965321 20.308338 -3.335113 6.647645 70.476112 4.254062 7.402572 -20.063533 17.855012 3.950794 0.808131 -4.990380 -5.831751 
1.973285 0.613579 0.991678 -90.898905 2.436853 88.259336 3.814864 -1.270544 0.879317 -5.599679 -11.849515 7.037718 10.285986 7.642525 -14.109363 0.000000 -0.000000 0.000000 1.115904 -2.715647 1.086209 2.879070 1.219283 8.425456 1.283397 -2.485814 -9.921933 0.000000 -0.000000 0.000000 -3.021177 4.292968 1.669148 4.042351 -1.942353 6.777866 1.292591 0.333325 2.824456 5.157706 -0.863056 13.079404 4.218316 -8.458602 12.188348 -19.468066 3.001461 6.356846 -69.881978 -6.340171 13.385244 13.915320 -32.260223 24.013250 7.315720 5.297216 -1.197423 20.364981 -3.346107 6.752881 70.344470 4.468391 7.489193 -19.921686 17.760023 3.739501 -1.374307 -4.622386 -5.643034 
1.972003 0.613710 0.991465 -91.049841 2.512315 88.198310 3.875497 -1.201468 1.142093 -5.566745 -11.665212 6.863029 10.385670 7.696381 -13.789744 0.000000 -0.000000 0.000000 1.210371 -2.790149 1.145264 2.872567 1.250054 8.445860 1.052644 -2.268378 -10.115751 0.000000 -0.000000 0.000000 -2.879755 4.292028 1.539436 4.067945 -1.927687 6.849870 1.281218 0.475335 2.813114 5.236851 -0.971610 13.186685 4.225126 -8.654980 12.080471 -19.334158 3.043423 6.320178 -70.103291 -6.093579 13.371537 13.846061 -32.402185 24.380632 5.902399 5.959984 -1.767930 20.179104 -3.380601 6.895124 70.584264 4.397452 7.539273 -20.105442 18.183634 4.107874 -0.746242 -4.910964 -5.646582 
1.971870 0.613894 0.991469 -90.997733 2.482457 88.202147 3.838236 -1.263397 1.142839 -5.544534 -11.655669 6.881024 10.408608 7.723718 -13.826398 0.000000 -0.000000 0.000000 1.186034 -2.740979 1.167884 2.895683 1.206194 8.422045 1.032420 -2.294842 -10.116270 0.000000 -0.000000 0.000000 -2.892888 4.273374 1.532224 4.053966 -1.944534 6.827081 1.275904 0.463905 2.800210 5.268956 -1.022043 13.231230 4.269940 -8.711315 12.029615 -19.314350 3.043472 6.306737 -70.132145 -6.118537 13.324930 13.835900 -32.345390 24.460345 5.321679 6.100481 -1.842619 20.196462 -3.380667 6.901311 70.636964 4.392887 7.535244 -20.274632 18.183252 4.150074 -0.506184 -5.054493 -5.381956 
1.971238 0.614366 0.991407 -90.990978 2.453510 88.092049 3.842542 -1.310710 1.333591 -5.561245 -11.656678 6.846448 10.404075 7.775984 -13.829895 0.000000 -0.000000 0.000000 1.182118 -2.645197 1.402113 2.908759 1.230546 8.303716 1.017995 -2.392305 -10.089167 0.000000 -0.000000 0.000000 -2.917029 4.283995 1.622642 4.057444 -1.977368 6.811458 1.279033 0.470757 2.744015 5.410814 -0.812244 13.055316 4.343565 -8.655860 12.119513 -19.256842 2.981545 6.294161 -70.202648 -6.096617 13.297639 13.708382 -32.184267 24.761018 5.131122 6.084877 -1.801664 20.163230 -3.324300 6.894246 70.818759 4.205044 7.623260 -20.571881 18.331115 4.235931 -0.890145 -5.580364 -4.986860 
1.971324 0.614886 0.991308 -90.931001 2.451729 88.196218 3.883831 -1.384783 1.106374 -5.603657 -11.591482 7.054516 10.318952 7.721655 -13.902903 0.000000 -0.000000 0.000000 1.229561 -2.595455 1.216378 2.910699 1.177046 8.426004 0.992025 -2.448065 -10.104424 0.000000 -0.000000 0.000000 -2.949759 4.246505 1.559163 4.083967 -1.987169 6.759257 1.321207 0.405892 2.683380 5.406027 -0.689716 12.973824 4.186124 -8.397654 12.097598 -19.291764 2.921505 6.356446 -70.294432 -6.143154 13.282496 13.895624 -32.143579 24.667755 4.847366 6.135446 -1.660605 20.135792 -3.315256 6.908893 70.861118 4.279825 7.695367 -20.576113 18.287061 4.379410 -0.620967 -5.639533 -4.990735 
